<?xml version="1.0" encoding="utf-8"?>
<!-- Generator: Adobe Illustrator 22.0.1, SVG Export Plug-In . SVG Version: 6.00 Build 0)  -->
<svg version="1.1" id="Layer_1" xmlns="http://www.w3.org/2000/svg" xmlns:xlink="http://www.w3.org/1999/xlink" x="0px" y="0px"
	 width="14.7px" height="14.7px" viewBox="0 0 14.7 14.7" style="enable-background:new 0 0 14.7 14.7;" xml:space="preserve">
<style type="text/css">
	.st0{fill:#FFFFFF;}
</style>
<title></title>
<g id="plus">
	<g>
		<path class="st0" d="M14.4,14.4c-0.4,0.4-1,0.4-1.4,0L0.3,1.7c-0.4-0.4-0.4-1,0-1.4s1-0.4,1.4,0L14.4,13
			C14.8,13.4,14.8,14,14.4,14.4z"/>
	</g>
	<g>
		<path class="st0" d="M14.4,1.7L1.7,14.4c-0.4,0.4-1,0.4-1.4,0c-0.4-0.4-0.4-1,0-1.4L13,0.3c0.4-0.4,1-0.4,1.4,0
			C14.8,0.7,14.8,1.3,14.4,1.7z"/>
	</g>
</g>
</svg>
