<svg width="14" height="16" viewBox="0 0 14 16" fill="none" xmlns="http://www.w3.org/2000/svg">
<g clip-path="url(#clip0_336_826)">
<path fill-rule="evenodd" clip-rule="evenodd" d="M2.62787 15.5591C2.74902 15.5284 2.83986 15.4669 2.96078 15.4054C7.37976 12.8527 7.37976 12.8527 7.37976 12.8527C12.9488 9.59294 12.9488 9.59294 12.9488 9.59294C14.099 8.91632 14.099 7.25559 12.9488 6.60984C7.37976 3.3498 7.37976 3.3498 7.37976 3.3498C2.96078 0.766548 2.96078 0.766548 2.96078 0.766548C1.62914 -0.00227904 0.0249747 1.25852 0.478957 2.76555C1.90144 7.59386 1.90144 7.59386 1.90144 7.59386C1.93175 7.65536 1.93175 7.71701 1.93175 7.74757C3.56614 13.5293 3.56614 13.5293 3.56614 13.5293C3.80844 14.3906 3.35438 15.2209 2.62787 15.5591Z" fill="#4F4EEF"/>
<path fill-rule="evenodd" clip-rule="evenodd" d="M3.71964 13.5357C2.08752 7.75098 2.08752 7.75098 2.08752 7.75098C2.14798 8.02798 2.14798 8.33562 2.05737 8.58184C0.636862 13.4434 0.636862 13.4434 0.636862 13.4434C0.213642 14.7975 1.54361 15.9974 2.78274 15.5667C3.50811 15.2282 3.96141 14.3974 3.71964 13.5357Z" fill="#75AAF9"/>
</g>
<defs>
<clipPath id="clip0_336_826">
<rect width="14" height="16" fill="white"/>
</clipPath>
</defs>
</svg>
