<svg width="82" height="56" viewBox="0 0 82 56" fill="none" xmlns="http://www.w3.org/2000/svg">
<path d="M8.15086 49.9761C8.12011 47.9586 8.18696 45.9618 8.40883 44.0001C8.66065 41.7799 9.12192 39.6297 9.89328 37.5356C11.3986 32.7379 14.8186 27.771 19.2476 24.582C22.8922 21.9611 27.2379 20.5734 31.8162 21.6869C31.4859 22.8808 31.2532 24.0809 31.1412 25.2988C30.926 27.6599 31.1877 30.0607 32.2281 32.4881C32.95 34.1927 34.411 36.3864 36.1584 37.5584C37.711 38.6031 39.4712 38.9103 41.2315 37.9501C44.7349 36.0211 45.1673 32.6753 43.8531 29.2093C42.3714 25.3056 38.5193 21.319 35.4628 19.8735C35.8876 18.7491 36.3612 17.642 36.8405 16.5523C38.8128 12.0557 42.4308 8.39152 47.0047 6.13995C51.2474 4.05923 56.2976 3.18638 61.616 3.97577C65.9094 4.54194 69.7506 6.57155 72.9522 8.94013C75.1773 10.5914 77.0595 12.4222 78.5803 14.1277C79.9696 15.6802 81.0839 17.0505 81.6902 18.2861C81.7072 18.3379 81.7645 18.3669 81.8221 18.3528C81.8768 18.3301 81.9058 18.2727 81.8888 18.2209C81.6167 16.8087 80.9985 15.0414 79.8635 13.1854C78.5946 11.096 76.708 8.96065 74.4583 7.04484C71.0894 4.18121 66.7837 1.94539 62.0286 1.16727C56.0987 0.277305 50.456 1.2537 45.7293 3.57927C40.5333 6.12103 36.4216 10.2915 34.1677 15.4018C33.6622 16.5575 33.1595 17.7362 32.7084 18.941C27.192 17.5185 21.92 19.1001 17.5629 22.2895C12.6867 25.8644 8.98792 31.4535 7.39386 36.7824C6.91951 38.6596 6.66061 40.5521 6.58255 42.4857C6.52993 43.8993 6.57208 45.3248 6.67744 46.7536C6.8481 47.1279 7.02167 47.4966 7.19233 47.871C7.52528 48.5651 7.83517 49.2763 8.15086 49.9761ZM41.1211 30.2539C41.8847 32.2605 41.8609 34.2719 39.8211 35.3859C38.8847 35.8988 37.9935 35.3687 37.2238 34.6697C36.1993 33.7482 35.378 32.4109 34.9175 31.3426C34.0818 29.3932 33.8725 27.4583 34.0452 25.5653C34.136 24.5887 34.3072 23.624 34.5645 22.674C37.0154 23.9643 39.9488 27.1621 41.1211 30.2539ZM7.16059 54.6239C6.87431 54.3927 6.62041 53.9978 6.49515 53.7472C5.51328 51.7166 4.52291 49.6602 3.71393 47.5299C3.35061 46.5684 3.04767 45.6014 2.74764 44.6287C2.05151 42.3322 1.47309 40.0593 0.802728 37.7831C0.697567 37.5355 0.81096 37.2544 1.05859 37.1492C1.30332 37.0498 1.58731 37.1575 1.68957 37.4108C3.07752 39.8628 4.48571 42.2891 5.77834 44.8441C6.09436 45.472 6.39886 46.1085 6.69181 46.7536C6.79454 48.1306 6.96047 49.5107 7.18098 50.8969C7.2027 51.1671 7.44601 51.3694 7.7134 51.339C7.98363 51.3173 8.18303 51.0797 8.16131 50.8095C8.15685 50.5336 8.15241 50.2577 8.14796 49.9818C8.21906 50.1402 8.29299 50.3072 8.36408 50.4656C9.55157 47.8763 11.1015 43.9869 11.4996 43.0577L12.5273 40.8268C12.6575 40.6406 12.7518 40.1411 12.9394 39.9695C13.1992 39.7265 13.055 39.8264 13.242 39.7985C13.4979 39.7624 13.2889 39.5918 13.4152 39.6269C13.6592 39.6855 13.517 39.3688 13.6428 39.4901C13.7143 39.5622 13.7181 39.3841 13.7694 39.4677C13.8776 39.6808 14.1899 39.2627 14.0906 39.6014C14.0702 39.6702 14.194 39.6105 14.139 39.6907C13.9915 39.9113 14.5388 39.6265 13.9365 39.9771C13.9535 40.0289 13.9188 40.0833 13.8641 40.1061C13.8123 40.1231 13.7521 40.0854 13.7351 40.0336C13.4563 40.0438 13.5597 40.0529 13.5597 40.0529C13.5597 40.0529 13.3582 40.1382 13.4733 40.11C13.5998 40.0876 13.4152 40.239 13.4929 40.2135C13.5937 40.1709 13.5066 40.3429 13.5759 40.2915C13.6883 40.2116 13.6613 40.4499 13.725 40.3525C13.7742 40.2838 13.7993 40.4334 13.8227 40.3587C13.9041 40.1551 14.2041 40.5157 14.1077 40.2509C14.0708 40.1386 14.4438 40.2697 14.275 40.1051C14.2264 40.0589 14.4277 40.0311 14.3641 40.0998C14.2947 40.1943 14.465 40.0428 14.5534 40.1811C14.679 40.3743 14.7119 40.7078 14.7449 41.0125C14.7582 41.2425 14.697 41.4347 14.6618 41.5754L13.9377 44.0031C13.4867 45.2079 11.4475 51.0893 10.3247 53.3657C9.98522 54.051 9.63546 54.4861 9.43633 54.6662C8.9862 55.0578 8.53486 55.0959 8.20736 55.0742C7.8454 55.0495 7.48404 54.8955 7.16059 54.6239Z" fill="#E2E2E2"/>
</svg>
