<svg width="92" height="92" viewBox="0 0 92 92" fill="none" xmlns="http://www.w3.org/2000/svg">
<g clip-path="url(#clip0_336_809)">
<path d="M68.3159 72.8471C68.7364 70.8737 69.0572 68.9016 69.2192 66.9341C69.4017 64.7072 69.3652 62.5084 69.0137 60.3045C68.4651 55.3062 66.0709 49.7715 62.3428 45.7857C59.2742 42.5091 55.2791 40.3067 50.5719 40.5132C50.665 41.7485 50.661 42.9709 50.5353 44.1875C50.2894 46.5456 49.5681 48.8503 48.0777 51.0305C47.0396 52.5632 45.1817 54.4328 43.2405 55.2445C41.5151 55.969 39.7288 55.9298 38.1876 54.6471C35.1236 52.0767 35.3468 48.7104 37.3069 45.5642C39.516 42.021 44.0667 38.8552 47.3451 38.0285C47.1459 36.8431 46.8955 35.6653 46.6361 34.5034C45.5712 29.7101 42.7307 25.4152 38.6789 22.3211C34.919 19.4587 30.1331 17.6251 24.7626 17.3705C20.4407 17.0951 16.2794 18.3431 12.68 20.0474C10.1774 21.2369 7.97645 22.6688 6.1544 24.0478C4.49093 25.3022 3.13256 26.4309 2.29863 27.5259C2.27193 27.5734 2.21006 27.5908 2.15634 27.5658C2.10706 27.5329 2.0897 27.471 2.1164 27.4235C2.65664 26.0906 3.6051 24.4763 5.07778 22.875C6.72706 21.0707 8.99119 19.3407 11.5691 17.8965C15.4284 15.7388 20.0854 14.3785 24.9012 14.5352C30.8913 14.8095 36.2384 16.8593 40.4256 20.0556C45.0316 23.5548 48.2586 28.442 49.4811 33.8919C49.7534 35.1235 50.0185 36.3772 50.2279 37.6466C55.9154 37.3184 60.7816 39.8903 64.4392 43.8625C68.5315 48.3134 71.0788 54.5126 71.6116 60.0493C71.7137 61.9827 71.6015 63.8896 71.304 65.8018C71.082 67.1988 70.7648 68.5892 70.385 69.9706C70.1451 70.3048 69.9035 70.6329 69.6636 70.9672C69.2027 71.5838 68.761 72.2216 68.3159 72.8471ZM39.7851 47.1178C38.6477 48.9386 38.2818 50.9167 40.0675 52.4043C40.8869 53.0887 41.8639 52.7411 42.7543 52.2042C43.9377 51.4984 45.0023 50.3453 45.6608 49.3863C46.8579 47.6355 47.4377 45.7776 47.6346 43.887C47.7345 42.9113 47.7532 41.9317 47.6845 40.9499C45.0302 41.7415 41.5335 44.3112 39.7851 47.1178ZM68.388 77.5987C68.7137 77.4272 69.0392 77.0889 69.2106 76.8673C70.5668 75.0651 71.9364 73.2392 73.1423 71.3057C73.6848 70.4326 74.1691 69.5426 74.6517 68.6463C75.7791 66.5279 76.7864 64.4099 77.8845 62.3065C78.0356 62.0839 77.9787 61.7861 77.7561 61.635C77.5353 61.4901 77.2358 61.5408 77.0865 61.7696C75.2503 63.9067 73.3992 66.0146 71.6366 68.2712C71.2051 68.8261 70.7831 69.3916 70.3709 69.9678C70.0037 71.2989 69.5738 72.6208 69.0892 73.9381C69.0157 74.199 68.7378 74.3504 68.4813 74.2689C68.2204 74.1953 68.0707 73.9236 68.1443 73.6627C68.2021 73.3929 68.2599 73.1231 68.3176 72.8533C68.2172 72.9949 68.1124 73.1445 68.012 73.2861C67.348 70.5159 66.5799 66.4001 66.3692 65.4115L65.7925 63.0239C65.7008 62.816 65.705 62.3076 65.5541 62.103C65.3463 61.8143 65.4684 61.9402 65.2904 61.8767C65.0463 61.7917 65.2843 61.6649 65.1537 61.6748C64.9029 61.6851 65.1037 61.4019 64.9568 61.4965C64.8727 61.5535 64.9035 61.378 64.837 61.4501C64.6896 61.6382 64.464 61.1676 64.4959 61.5191C64.5027 61.5906 64.3927 61.508 64.4311 61.5973C64.5333 61.8423 64.0514 61.457 64.5744 61.9175C64.5477 61.965 64.5712 62.0252 64.6205 62.0581C64.6681 62.0848 64.7344 62.0595 64.7611 62.0119C65.0326 62.0759 64.9294 62.0648 64.9294 62.0648C64.9294 62.0648 65.1107 62.1875 65.0032 62.1375C64.8834 62.0911 65.0352 62.2754 64.9639 62.2353C64.8733 62.174 64.9254 62.3596 64.8674 62.2958C64.7726 62.1956 64.7529 62.4347 64.7093 62.3268C64.6743 62.2498 64.6207 62.3917 64.6123 62.314C64.5718 62.0984 64.2076 62.3942 64.3535 62.153C64.4114 62.05 64.0201 62.1064 64.2175 61.9776C64.2742 61.9417 64.0821 61.8755 64.1311 61.9551C64.1809 62.0613 64.0432 61.8797 63.9297 61.9983C63.7692 62.1635 63.6723 62.4843 63.5809 62.777C63.5234 63 63.5463 63.2005 63.5536 63.3452L63.7942 65.8672C64.0036 67.1365 64.8662 73.3014 65.5272 75.752C65.7277 76.49 65.9866 76.9846 66.1471 77.1998C66.513 77.6711 66.9484 77.7958 67.2739 77.8379C67.6338 77.8838 68.0182 77.8026 68.388 77.5987Z" fill="#E2E2E2"/>
</g>
<defs>
<clipPath id="clip0_336_809">
<rect width="74.0233" height="74.0233" fill="white" transform="matrix(0.270213 0.962801 0.962801 -0.270213 0 20.002)"/>
</clipPath>
</defs>
</svg>
